<svg id="Layer_1" data-name="Layer 1" xmlns="http://www.w3.org/2000/svg" viewBox="0 0 45 45"><defs><style>.cls-1{fill:#e80e0c;}.cls-2{fill:#e6e6e6;opacity:0.28;}.cls-3{fill:#d9e021;}.cls-4{fill:#fff;}.cls-5{fill:#333;}</style></defs><path class="cls-1" d="M22.5,2.09s1.39,1.74,6.69,2.45,8.25-1.29,8.25-1.29,1.75,10.41-1.81,19.26c-3.17,7.91-9.58,12.16-13.13,14.05-3.55-1.89-10-6.14-13.13-14C5.81,13.66,7.56,3.25,7.56,3.25s3,2,8.25,1.29S22.5,2.09,22.5,2.09Z"/><path class="cls-2" d="M22.5,32l-.12-.06A20.46,20.46,0,0,1,12.83,21.7c-2.55-6.36-1.32-13.91-1.31-14l.07-.4.32.22a8.91,8.91,0,0,0,5.76.88c3.62-.48,4.62-1.66,4.63-1.67l.2-.24.2.24s1,1.19,4.63,1.67a8.91,8.91,0,0,0,5.76-.88l.32-.22.07.4c0,.07,1.24,7.62-1.31,14a20.46,20.46,0,0,1-9.55,10.22ZM12,8.18c-.2,1.59-.83,7.9,1.34,13.31a19.78,19.78,0,0,0,9.19,9.88,19.78,19.78,0,0,0,9.19-9.88C33.86,16.08,33.23,9.77,33,8.18A9.8,9.8,0,0,1,27.27,9c-3-.41-4.32-1.28-4.77-1.67-.45.39-1.76,1.26-4.77,1.67A9.8,9.8,0,0,1,12,8.18Z"/><path class="cls-3" d="M22.5,37l-.16-.09A28.32,28.32,0,0,1,9,22.66C5.48,13.8,7.19,3.29,7.21,3.19l.09-.56.45.31s2.93,1.92,8,1.23,6.44-2.31,6.46-2.33l.27-.33.27.33s1.42,1.66,6.46,2.33,8-1.21,8-1.23l.45-.31.09.56c0,.1,1.73,10.61-1.83,19.47a28.32,28.32,0,0,1-13.3,14.23ZM7.84,3.84C7.55,6,6.67,14.83,9.7,22.37A27.59,27.59,0,0,0,22.5,36.14,27.59,27.59,0,0,0,35.3,22.37c3-7.54,2.15-16.33,1.86-18.53a13.64,13.64,0,0,1-8,1.08c-4.19-.57-6-1.78-6.64-2.32-.63.54-2.45,1.75-6.64,2.32A13.64,13.64,0,0,1,7.84,3.84Z"/><path class="cls-4" d="M19.79,30v.12H17.86V30H18a.46.46,0,0,0,.4-.16.93.93,0,0,0,.08-.51V26.4a1.57,1.57,0,0,0,0-.46.34.34,0,0,0-.13-.14.68.68,0,0,0-.31-.08h-.16V25.6h1.93v.12h-.17a.49.49,0,0,0-.4.17,1,1,0,0,0-.08.51v2.9a1.87,1.87,0,0,0,0,.45.37.37,0,0,0,.14.14.67.67,0,0,0,.3.08Z"/><path class="cls-4" d="M21.35,28V29.3a1,1,0,0,0,.09.53.49.49,0,0,0,.38.14H22v.12H20.07V30h.16a.46.46,0,0,0,.41-.18,1,1,0,0,0,.07-.49V26.4a.94.94,0,0,0-.09-.53.5.5,0,0,0-.39-.15h-.16V25.6h1.64a3,3,0,0,1,.95.12,1.39,1.39,0,0,1,.59.42,1.08,1.08,0,0,1,.24.7,1.19,1.19,0,0,1-.36.9,1.46,1.46,0,0,1-1,.34l-.35,0Zm0-.19.31.05.23,0a.76.76,0,0,0,.59-.27,1,1,0,0,0,.25-.69,1.19,1.19,0,0,0-.12-.54.82.82,0,0,0-.33-.38,1.06,1.06,0,0,0-.5-.12,2,2,0,0,0-.43.06Z"/><path class="cls-4" d="M26.84,25.5v1.55h-.12a1.8,1.8,0,0,0-.22-.71,1.05,1.05,0,0,0-.44-.42,1.14,1.14,0,0,0-.59-.16.82.82,0,0,0-.57.21.64.64,0,0,0-.22.48.62.62,0,0,0,.14.38,3.91,3.91,0,0,0,1,.66,6,6,0,0,1,.86.52,1.27,1.27,0,0,1,.35.42,1.08,1.08,0,0,1,.13.52,1.15,1.15,0,0,1-.4.88,1.45,1.45,0,0,1-1,.37,2,2,0,0,1-.36,0l-.43-.12a2.09,2.09,0,0,0-.41-.11.17.17,0,0,0-.13,0,.39.39,0,0,0-.07.21H24.2V28.66h.12a2.17,2.17,0,0,0,.23.72,1.18,1.18,0,0,0,.45.4,1.33,1.33,0,0,0,.65.16.92.92,0,0,0,.66-.22.67.67,0,0,0,.15-.85,1.07,1.07,0,0,0-.29-.32c-.08-.06-.32-.2-.7-.42a5.47,5.47,0,0,1-.82-.52,1.22,1.22,0,0,1-.37-.42,1,1,0,0,1-.13-.51,1.12,1.12,0,0,1,.37-.83,1.31,1.31,0,0,1,.95-.35,2,2,0,0,1,.76.17.71.71,0,0,0,.26.09.18.18,0,0,0,.14-.06.34.34,0,0,0,.09-.2Z"/><polygon class="cls-4" points="22.5 4.92 23.5 6.94 25.72 7.26 24.11 8.84 24.49 11.06 22.5 10.01 20.51 11.06 20.89 8.84 19.28 7.26 21.5 6.94 22.5 4.92"/><polygon class="cls-4" points="14.84 7.9 15.46 9.16 16.86 9.37 15.85 10.35 16.09 11.73 14.84 11.08 13.6 11.73 13.83 10.35 12.83 9.37 14.22 9.16 14.84 7.9"/><polygon class="cls-4" points="30.16 7.9 30.78 9.16 32.17 9.37 31.17 10.35 31.4 11.73 30.16 11.08 28.91 11.73 29.15 10.35 28.14 9.37 29.54 9.16 30.16 7.9"/><path class="cls-1" d="M24.66,43.31c-.71,0-1.45,0-2.21,0l-3-.08a43.26,43.26,0,0,1-6.72-.38L12,42.65c-1.13-.22-2.3-.46-2.79-1.11a3.14,3.14,0,0,1-.44-1.72,3.73,3.73,0,0,0-.14-1A2.29,2.29,0,0,0,6.3,37.09c-1.64,0-5.12.27-5.16.27l-.58,0,2.67-2.22a.77.77,0,0,0,.25-.45.43.43,0,0,0-.16-.28c-.55-.46-2.3-2-2.31-2l-.35-.31L5,32a5.38,5.38,0,0,1,.65,0,3,3,0,0,1,2.12.64,1.23,1.23,0,0,1,.29,1c-.17,1.63.21,2.87,2.64,3.59s9.91.91,13.52.91c7.12,0,11.49-.75,12.3-2.12,1.08-1.83.51-2.34.51-2.35L37,33.58V33.5a1.31,1.31,0,0,1,.36-.89A2.6,2.6,0,0,1,39.26,32l.66,0c1.7.16,2.77.2,3.38.2h.56l.58-.05-2.78,2.33h0s-.14.06-.15.17.09.27.29.44c.73.64,2.19,1.83,2.21,1.84l.44.36-.57,0s-2.82-.15-4.47-.15a6.06,6.06,0,0,0-1.1.05,2.59,2.59,0,0,0-2,2.25c0,.17,0,.34,0,.49-.12,1.28-.17,1.81-2,2.34A33.52,33.52,0,0,1,24.66,43.31Z"/><path class="cls-3" d="M39.26,32.16l.64,0c1.72.17,2.81.2,3.4.2h.57l-2.31,1.94s-.64.27.1.92,2.21,1.85,2.21,1.85-2.8-.16-4.48-.16a5.65,5.65,0,0,0-1.15.07,2.74,2.74,0,0,0-2.12,2.4c-.19,1.66,0,2.12-1.94,2.67a33.39,33.39,0,0,1-9.52,1l-2.21,0c-6.55-.19-8.49-.19-9.69-.46s-2.86-.46-3.42-1.2-.27-1.94-.55-2.68A2.48,2.48,0,0,0,6.3,36.9c-1.66,0-5.17.28-5.17.28l2.21-1.85s.65-.55.1-1-2.31-2-2.31-2L5,32.19a6.08,6.08,0,0,1,.63,0c.89,0,2.36.18,2.23,1.42-.19,1.75.27,3.05,2.77,3.78s10.06.93,13.57.93,11.26-.19,12.46-2.22.46-2.58.46-2.58-.07-1.33,2.13-1.33m0-.37a2.74,2.74,0,0,0-2.08.69,1.46,1.46,0,0,0-.42,1l0,.2.12.07c.12.15.24.78-.55,2.1-.25.44-1.26,1.24-5.09,1.69a60.78,60.78,0,0,1-7,.35c-3.6,0-11-.19-13.47-.91S8.07,35.2,8.23,33.62a1.43,1.43,0,0,0-.33-1.13,3.13,3.13,0,0,0-2.26-.7,5.19,5.19,0,0,0-.66,0l-3.86.09-.93,0,.69.62c.07.07,1.77,1.58,2.32,2,.09.08.09.12.09.14a.57.57,0,0,1-.19.31L.89,36.9,0,37.64l1.16-.09s3.51-.28,5.14-.28a2.11,2.11,0,0,1,2.15,1.61,3.57,3.57,0,0,1,.13.95,3.2,3.2,0,0,0,.47,1.82c.53.71,1.74,1,2.9,1.18l.73.16a44.72,44.72,0,0,0,6.75.39l3,.08,2.22,0a33.92,33.92,0,0,0,9.62-1.06A3,3,0,0,0,36,41.49a2.94,2.94,0,0,0,.42-1.56c0-.16,0-.32,0-.49a2.39,2.39,0,0,1,1.86-2.09,5.54,5.54,0,0,1,1-.05c1.65,0,4.43.15,4.46.16l1.14.06-.88-.72S42.63,35.6,41.9,35a.76.76,0,0,1-.23-.27l0,0,0,0,0,0,2.31-1.94.89-.75-1.16.1H43.3c-.6,0-1.67,0-3.36-.19a5.49,5.49,0,0,0-.68,0Z"/><path class="cls-4" d="M14.23,41.25l-.08.55H12.48v0l.18-.08a.18.18,0,0,0,.08-.09,1,1,0,0,0,0-.21V39.94a1,1,0,0,0,0-.21.18.18,0,0,0-.08-.09l-.18-.08v0H14l.06.52h0a.72.72,0,0,0-.21-.31.48.48,0,0,0-.36-.13H13.1v.93h.41a.41.41,0,0,0,.36-.21h0v.53h0a.8.8,0,0,0-.15-.17.31.31,0,0,0-.21-.07H13.1v1s0,.07.11.09a.92.92,0,0,0,.32,0h.15a.43.43,0,0,0,.31-.14,1,1,0,0,0,.22-.33Z"/><path class="cls-4" d="M16.26,41.51l.07.11.1.09a.75.75,0,0,0,.18.08v0h-.95v0a.91.91,0,0,0,.17-.08.12.12,0,0,0,.06-.1.36.36,0,0,0-.05-.13l-.44-.69-.44.64a.34.34,0,0,0-.08.18q0,.12.21.18v0h-.67v0a1,1,0,0,0,.42-.36l.52-.71-.57-.88-.08-.12-.1-.08a.45.45,0,0,0-.17-.08v0h1v0a.62.62,0,0,0-.18.08.1.1,0,0,0-.06.09.31.31,0,0,0,0,.13l.4.63L16,39.9a.3.3,0,0,0,0-.14c0-.09-.06-.15-.19-.2v0h.65v0a1,1,0,0,0-.41.35l-.46.65.61.95Z"/><path class="cls-4" d="M17.66,39.57a.59.59,0,0,0-.48.29,1.3,1.3,0,0,0-.21.79,1.33,1.33,0,0,0,.22.82.56.56,0,0,0,.88.13,2.05,2.05,0,0,0,.34-.38h0l-.07.5a2.09,2.09,0,0,1-.69.12,1.06,1.06,0,0,1-.78-.3,1.17,1.17,0,0,1-.3-.84,1.25,1.25,0,0,1,.31-.87,1,1,0,0,1,.77-.33,2.38,2.38,0,0,1,.69.12l.07.51h0a1.62,1.62,0,0,0-.34-.39.6.6,0,0,0-.4-.17Z"/><path class="cls-4" d="M20.44,41.25l-.08.55H18.68v0l.19-.08a.16.16,0,0,0,.07-.09.59.59,0,0,0,0-.21V39.94a.59.59,0,0,0,0-.21.16.16,0,0,0-.07-.09l-.19-.08v0h1.57l.06.52h0a.69.69,0,0,0-.2-.31.48.48,0,0,0-.36-.13h-.41v.93h.41a.38.38,0,0,0,.35-.21h0v.53h0a.55.55,0,0,0-.14-.17.31.31,0,0,0-.21-.07h-.41v1s0,.07.11.09a.9.9,0,0,0,.31,0h.16a.44.44,0,0,0,.31-.14,1.12,1.12,0,0,0,.22-.33Z"/><path class="cls-4" d="M22.36,41.25l-.07.56H20.65v0a1.16,1.16,0,0,0,.19-.09.16.16,0,0,0,.07-.09.91.91,0,0,0,0-.21V39.94a.88.88,0,0,0,0-.2.15.15,0,0,0-.07-.1l-.19-.08v0h.91v0l-.19.08a.16.16,0,0,0-.07.09.59.59,0,0,0,0,.21v1.65s0,.07.11.09a.86.86,0,0,0,.31,0h.11a.41.41,0,0,0,.31-.14,1,1,0,0,0,.22-.33Z"/><path class="cls-4" d="M24.29,41.25l-.08.56H22.57v0a.85.85,0,0,0,.19-.09.16.16,0,0,0,.07-.09.56.56,0,0,0,0-.21V39.94a.53.53,0,0,0,0-.2.15.15,0,0,0-.07-.1l-.19-.08v0h.91v0l-.18.08a.18.18,0,0,0-.08.09,1,1,0,0,0,0,.21v1.65s0,.07.11.09a.9.9,0,0,0,.31,0h.11a.39.39,0,0,0,.31-.14,1,1,0,0,0,.23-.33Z"/><path class="cls-4" d="M26.25,41.25l-.08.55H24.49v0a.74.74,0,0,0,.19-.08.18.18,0,0,0,.08-.09,1,1,0,0,0,0-.21V39.94a1,1,0,0,0,0-.21.18.18,0,0,0-.08-.09.74.74,0,0,0-.19-.08v0h1.57l.06.52h0a.72.72,0,0,0-.21-.31.48.48,0,0,0-.36-.13h-.41v.93h.41a.38.38,0,0,0,.35-.21h0v.53h0a.55.55,0,0,0-.14-.17.31.31,0,0,0-.21-.07h-.41v1s0,.07.11.09a.92.92,0,0,0,.32,0h.15a.43.43,0,0,0,.31-.14,1,1,0,0,0,.22-.33Z"/><path class="cls-4" d="M28.68,39.56a.72.72,0,0,0-.21.09.35.35,0,0,0-.08.15,1.35,1.35,0,0,0,0,.34v1.67h-.25c-.37-.59-.78-1.23-1.24-1.92v1.32a2.56,2.56,0,0,0,0,.34.27.27,0,0,0,.09.15.77.77,0,0,0,.2.09v0h-.72v0a.72.72,0,0,0,.21-.09.35.35,0,0,0,.08-.15,1.4,1.4,0,0,0,0-.34V39.79a.65.65,0,0,0-.31-.23v0H27c.48.73.9,1.37,1.24,1.92V40.14a2.74,2.74,0,0,0,0-.35.27.27,0,0,0-.09-.15l-.2-.08v0h.72Z"/><path class="cls-4" d="M29.75,39.57a.62.62,0,0,0-.49.29,1.38,1.38,0,0,0-.2.79,1.33,1.33,0,0,0,.22.82.56.56,0,0,0,.88.13,2.05,2.05,0,0,0,.34-.38h0l-.06.5a2.13,2.13,0,0,1-.69.12,1.06,1.06,0,0,1-.78-.3,1.17,1.17,0,0,1-.3-.84,1.25,1.25,0,0,1,.31-.87,1,1,0,0,1,.77-.33,2.38,2.38,0,0,1,.69.12l.07.51h0a1.62,1.62,0,0,0-.34-.39.62.62,0,0,0-.41-.17Z"/><path class="cls-4" d="M32.52,41.25l-.07.55H30.77v0L31,41.7a.16.16,0,0,0,.07-.09,1,1,0,0,0,0-.21V39.94a1,1,0,0,0,0-.21.16.16,0,0,0-.07-.09l-.19-.08v0h1.57l0,.52h0a.79.79,0,0,0-.2-.31.5.5,0,0,0-.36-.13H31.4v.93h.41a.4.4,0,0,0,.35-.21h0v.53h0A.55.55,0,0,0,32,40.7a.35.35,0,0,0-.21-.07H31.4v1s0,.07.11.09a.86.86,0,0,0,.31,0H32a.44.44,0,0,0,.31-.14.93.93,0,0,0,.21-.33Z"/><circle class="cls-4" cx="16.05" cy="27.31" r="0.81"/><circle class="cls-4" cx="28.95" cy="27.31" r="0.81"/><path class="cls-4" d="M14.17,17.06s3.7,1.85,4.09,2.78L20.78,18,15.89,16.4Z"/><path d="M18.25,19.89l0,0c-.38-.9-4-2.74-4.08-2.76l-.07,0,1.8-.69,5,1.61Zm-4-2.82c.51.26,3.58,1.84,4,2.72L20.71,18l-4.82-1.56Z"/><path class="cls-4" d="M15.45,15.88l-1,.65s3.7,2.12,4.36,3.84L22,17.72Z"/><path d="M18.78,20.42l0,0c-.65-1.69-4.31-3.8-4.35-3.82l0,0,1.07-.7h0L22,17.71Zm-4.29-3.89c.43.25,3.66,2.19,4.32,3.78l3.09-2.57-6.45-1.83Z"/><path class="cls-4" d="M14.56,15.74s3.31,2.25,4.23,4.63a1.1,1.1,0,0,0,.93.79c.79.13,2.51,3.57,2.51,3.57l6.35-4.23s-2.12-2.78-5-2.91l-4.49-3.83Z"/><path d="M22.22,24.78l0,0s-1.72-3.43-2.49-3.56a1.12,1.12,0,0,1-.95-.82c-.91-2.33-4.18-4.58-4.22-4.6l0,0,4.56-2,4.51,3.84c2.88.14,5,2.89,5,2.92l0,0Zm-7.59-9c.41.29,3.34,2.4,4.19,4.61a1.06,1.06,0,0,0,.9.77c.77.13,2.33,3.18,2.52,3.55l6.29-4.19c-.23-.29-2.27-2.74-5-2.86h0L19.05,13.8Z"/><path class="cls-4" d="M14.56,15.21s3.84,2.25,4.23,5.16c0,0-.13.4.66.66a7.13,7.13,0,0,1,2.91,3.3L28.44,20s-2.21-2.5-4.74-2.77c0,0-.94-4.37-2.66-4.76Z"/><path d="M22.35,24.39l0,0a7.18,7.18,0,0,0-2.89-3.29,1,1,0,0,1-.64-.45.34.34,0,0,1,0-.24c-.39-2.86-4.18-5.11-4.21-5.13l-.06,0L21,12.4h0c1.67.39,2.6,4.39,2.68,4.77,2.5.28,4.72,2.75,4.74,2.78l0,0Zm-7.71-9.17c.47.29,3.82,2.44,4.19,5.14h0s-.11.37.64.62a7.36,7.36,0,0,1,2.91,3.28l6-4.31c-.25-.27-2.35-2.48-4.7-2.73h0v0s-1-4.34-2.63-4.74Z"/><path class="cls-4" d="M24.28,16.6l-5.35,3.9s4.29.33,5.22,1.39l5.09-3.77S28.58,16.4,24.28,16.6Z"/><path d="M24.14,21.93l0,0c-.9-1-5.15-1.37-5.2-1.38h-.09l5.44-4h0c4.27-.2,5,1.47,5,1.54v0ZM19,20.48c.63.05,4.24.4,5.13,1.36l5.05-3.73c-.1-.2-1-1.66-4.91-1.48Z"/><path class="cls-4" d="M15.62,14.55,21,11.78s3.17,1.71,3.31,4.89L18.93,20.5s-.14-4.49-3.31-5.95Z"/><path d="M18.89,20.56V20.5s-.17-4.49-3.28-5.92l-.06,0L21,11.74h0s3.19,1.76,3.32,4.92h0Zm-3.19-6c2.89,1.38,3.22,5.35,3.26,5.89l5.35-3.79c-.13-3-3-4.7-3.27-4.84Z"/><path class="cls-5" d="M14.17,17.86V17.2s3.43,1.45,4.62,3.17c0,0-.23.21.55.57A10.8,10.8,0,0,1,22.1,24.6c0,.4,5.82-3.7,5.82-3.7l.13.53L22,25.13l-2.65-3.57s-1.06-.53-1.19-1.32Z"/><path d="M22,25.17,19.3,21.58c-.1,0-1.06-.56-1.2-1.32l-4-2.38v-.73l0,0s3.46,1.47,4.64,3.18l0,0,0,0a.1.1,0,0,0,0,.09c0,.07.1.22.55.43a10.51,10.51,0,0,1,2.78,3.68c.27.06,3.67-2.24,5.77-3.72l0,0,.15.6ZM14.2,17.84l4,2.38h0c.12.77,1.16,1.29,1.17,1.3h0L22,25.08l6-3.67L27.9,21c-1,.71-5.51,3.85-5.8,3.7a.05.05,0,0,1,0,0A10.84,10.84,0,0,0,19.32,21c-.37-.17-.57-.33-.59-.49a.17.17,0,0,1,0-.11c-1.11-1.58-4.14-2.94-4.55-3.12Z"/></svg>